PathFileType	4	(X/Y/Z)	C:/Users/opensim2020/Desktop/walking_exp_matlab/subject03_walking13_straight_03.trc	
DataRate	CameraRate	NumFrames	NumMarkers	Units	OrigDataRate	OrigDataStartFrame	OrigNumFrames	
100.00	100.00	4	46	mm	100.00	1731	209	
Frame#	Time	LFHD			RFHD			LBHD			RBHD			C7			T10			CLAV			STRN			RBAK			LSHO			LUPA			LELB			LFRM			LWRA			LWRB			LFIN			RSHO			RUPA			RELB			RFRM			RWRA			RWRB			RFIN			LASI			RASI			LPSI			RPSI			LTHI			LKNE			LTIB			LANK			LHEE			LTOE			RTHI			RKNE			RTIB			RANK			RHEE			RTOE			*39			*40			*41			*42			*43			*44			*45			
		X1	Y1	Z1	X2	Y2	Z2	X3	Y3	Z3	X4	Y4	Z4	X5	Y5	Z5	X6	Y6	Z6	X7	Y7	Z7	X8	Y8	Z8	X9	Y9	Z9	X10	Y10	Z10	X11	Y11	Z11	X12	Y12	Z12	X13	Y13	Z13	X14	Y14	Z14	X15	Y15	Z15	X16	Y16	Z16	X17	Y17	Z17	X18	Y18	Z18	X19	Y19	Z19	X20	Y20	Z20	X21	Y21	Z21	X22	Y22	Z22	X23	Y23	Z23	X24	Y24	Z24	X25	Y25	Z25	X26	Y26	Z26	X27	Y27	Z27	X28	Y28	Z28	X29	Y29	Z29	X30	Y30	Z30	X31	Y31	Z31	X32	Y32	Z32	X33	Y33	Z33	X34	Y34	Z34	X35	Y35	Z35	X36	Y36	Z36	X37	Y37	Z37	X38	Y38	Z38	X39	Y39	Z39	X40	Y40	Z40	X41	Y41	Z41	X42	Y42	Z42	X43	Y43	Z43	X44	Y44	Z44	X45	Y45	Z45	X46	Y46	Z46	

105	1.040	-1031.89075	67.20380	1606.37769	-900.82288	43.37954	1599.67529	-1053.91614	-47.83369	1539.66724	-924.67096	-66.61931	1532.84863	-996.26825	-64.31662	1384.54968	-1005.52301	-99.73484	1075.78088	-994.24542	60.00660	1310.89392	-1006.77014	105.18565	1145.87195	-912.96338	-120.65308	1209.09375	-1149.59644	13.96005	1354.87854	-1229.19104	31.53198	1165.79797	-1240.84302	68.99950	1051.55481	-1220.83057	165.47153	975.00391	-1169.40161	256.66412	917.13489	-1213.51025	240.21103	888.91949	-1194.94214	314.51373	858.78314	-834.23132	8.30826	1325.55542	-777.41400	-39.41872	1104.44287	-771.57855	-55.30773	991.01501	-773.13361	-88.68031	857.45453	-812.06567	-97.33025	757.53815	-765.23212	-126.68090	763.97101	-783.24493	-144.84985	689.81799	-1122.61963	59.25127	902.94202	-884.71991	68.97078	915.94019	-1064.34778	-99.13503	930.38171	-916.15485	-94.04802	941.05835	-1166.11816	-45.71482	610.66473	-1144.23035	-87.46469	434.51996	-1140.62122	-246.36891	306.12027	-1097.79834	-391.44727	156.90392	-1059.65833	-439.61597	161.58105	-1063.77954	-316.11096	26.69148	-837.94043	93.53349	632.02588	-886.76056	179.63849	479.16074	-879.57574	176.53929	282.90250	-927.04431	176.18454	67.84665	-975.04053	128.03651	36.11759	-952.84686	315.54880	32.88104	-993.60101	-33.93777	1648.07166																		 
106	1.050	-1031.25049	81.14163	1607.33752	-900.14801	57.58459	1600.54114	-1053.12598	-33.88402	1540.62048	-923.79663	-52.49403	1533.78113	-995.17957	-49.67295	1385.43372	-1004.15546	-84.88053	1076.42285	-993.53259	74.51675	1311.92651	-1005.91766	120.17549	1146.96045	-911.15411	-105.38165	1209.91174	-1148.78040	28.07427	1355.62683	-1228.41284	43.54916	1166.20178	-1240.21985	80.05240	1051.78479	-1220.12524	176.58266	975.39703	-1168.93079	267.77008	918.08344	-1212.47668	251.12825	889.15363	-1194.63391	326.06631	860.62579	-833.39276	23.48018	1326.79614	-776.44446	-23.62257	1105.67175	-770.67841	-39.08476	992.11853	-772.34229	-71.84443	858.41772	-811.56769	-80.38591	758.52405	-764.48181	-109.49626	764.80664	-783.18744	-128.75523	690.74902	-1121.13794	74.61477	903.49408	-883.60706	85.15971	917.76276	-1063.19202	-83.66270	930.38214	-915.18280	-77.89737	942.31641	-1166.30505	-24.56061	609.00104	-1145.91858	-62.35677	432.18887	-1140.90527	-224.43639	308.61551	-1097.77869	-373.62985	164.37564	-1058.20447	-419.81482	174.21442	-1063.23926	-314.25842	26.72321	-837.47083	109.51696	632.78693	-887.31158	194.56445	479.38950	-880.80579	185.60835	282.71091	-928.03235	177.14122	67.98963	-975.14618	128.45073	36.35936	-953.27338	316.33630	32.45992	-993.44440	-20.42617	1648.51636																		 
107	1.060	-1030.73169	95.08823	1608.24011	-899.53558	71.72610	1601.38098	-1052.41736	-19.96413	1541.55310	-923.06708	-38.33962	1534.64392	-994.25708	-35.31123	1386.20667	-1002.65442	-69.90179	1077.02344	-992.96423	88.96734	1312.91003	-1005.34070	135.05327	1148.16138	-909.36633	-90.17966	1210.85364	-1147.96521	41.71884	1356.41443	-1227.61548	55.40081	1166.83765	-1239.34387	90.90424	1052.18323	-1219.45374	187.20782	975.60785	-1168.54260	278.40732	918.42554	-1211.74890	261.57663	889.05084	-1194.48755	336.79059	861.33362	-832.67401	38.55368	1328.31982	-775.37292	-7.74686	1107.09497	-769.74347	-22.58706	993.47974	-771.68695	-54.48675	859.62830	-810.85168	-63.59006	759.10040	-763.53247	-91.49642	765.69800	-782.81964	-111.48207	691.68188	-1119.74023	89.60796	904.17096	-882.63745	100.99694	919.69067	-1062.04187	-68.59861	930.42560	-914.06567	-62.15191	943.72247	-1166.33911	-3.29570	607.22748	-1146.57520	-36.49477	429.97171	-1140.49353	-200.75284	310.70895	-1098.27661	-353.20377	171.03600	-1058.58838	-398.52393	186.80156	-1063.55945	-308.27930	29.78857	-837.08600	125.13268	633.71594	-887.13586	206.96651	478.52350	-880.84723	193.07411	282.07013	-928.18939	177.78096	68.06570	-975.47430	128.33676	36.69969	-953.92511	316.63123	32.26805																					 
108	1.070	-1030.22693	109.03430	1609.25122	-899.13800	85.85242	1602.16504	-1051.79480	-6.06917	1542.55322	-922.42572	-24.28304	1535.56750	-993.45215	-21.34724	1386.93396	-1000.99622	-55.12889	1077.77502	-992.50964	103.34103	1313.96338	-1005.04578	149.61400	1149.32190	-907.79718	-75.00138	1211.82410	-1147.06384	55.06241	1357.36890	-1226.57629	67.08248	1167.54456	-1238.22729	101.52478	1052.69763	-1218.82141	197.57893	975.49768	-1168.24194	288.62500	918.05756	-1211.17151	271.44540	888.47461	-1194.43884	346.68414	860.86792	-831.98450	53.65696	1329.86963	-774.26892	8.14313	1108.66113	-768.65430	-5.97627	994.95642	-770.53955	-36.56657	860.86121	-809.76544	-44.88228	760.33795	-762.45496	-72.83031	766.66669	-782.16589	-92.90118	692.51770	-1118.53052	104.16796	905.01910	-881.89941	116.61569	921.54395	-1060.75269	-54.14634	930.68958	-912.70544	-46.98299	945.33221	-1166.07520	17.65041	605.33649	-1146.84119	-10.11840	427.80075	-1140.50793	-175.82614	312.33667	-1098.53320	-332.12402	177.87752	-1059.22571	-376.42059	197.94032	-1065.25842	-296.48511	35.48498	-836.18298	139.78490	634.92859	-886.58795	217.76271	477.29559	-880.70911	198.63643	281.43027	-928.40906	178.00005	68.16707	-975.49548	128.32912	36.79688	-954.17938	316.74432	32.09087	-991.24750	8.41770	1650.12769																		 
